<?xml version="1.0" encoding="UTF-8"?>
<svg xmlns="http://www.w3.org/2000/svg" xmlns:xlink="http://www.w3.org/1999/xlink" version="1.1" viewBox="0 0 1080.8 1920">
  <!-- Generator: Adobe Illustrator 29.6.1, SVG Export Plug-In . SVG Version: 2.1.1 Build 9)  -->
  <defs>
    <style>
      .st0 {
        fill: #efefef;
        mix-blend-mode: screen;
      }

      .st0, .st1 {
        isolation: isolate;
      }

      .st2 {
        fill: #272c4d;
      }

      .st3 {
        fill: #ffa9a9;
      }

      .st4 {
        fill: #fcc2be;
      }

      .st5 {
        fill: #141414;
      }

      .st6 {
        fill: #f9f9f9;
      }

      .st7 {
        fill: url(#Sfumatura_senza_nome);
      }

      .st8 {
        fill: #ff5f7e;
      }

      .st9 {
        fill: url(#Sfumatura_senza_nome_2);
      }
    </style>
    <linearGradient id="Sfumatura_senza_nome_2" data-name="Sfumatura senza nome 2" x1="2726.7" y1="3052.8" x2="2726.7" y2="3193.5" gradientTransform="translate(0 4440) scale(1 -1)" gradientUnits="userSpaceOnUse">
      <stop offset="0" stop-color="#ff5f7e"/>
      <stop offset="0" stop-color="#f45d7e"/>
      <stop offset=".2" stop-color="#d95a7e"/>
      <stop offset=".5" stop-color="#ad567e"/>
      <stop offset=".7" stop-color="#704f7e"/>
      <stop offset="1" stop-color="#23477e"/>
      <stop offset="1" stop-color="#1a467f"/>
    </linearGradient>
    <linearGradient id="Sfumatura_senza_nome" data-name="Sfumatura senza nome" x1="540.4" y1="2523.1" x2="540.4" y2="4344.9" gradientTransform="translate(0 4440) scale(1 -1)" gradientUnits="userSpaceOnUse">
      <stop offset="0" stop-color="#ff5f7e"/>
      <stop offset="0" stop-color="#f45d7e"/>
      <stop offset=".2" stop-color="#d95a7e"/>
      <stop offset=".5" stop-color="#ad567e"/>
      <stop offset=".7" stop-color="#704f7e"/>
      <stop offset="1" stop-color="#23477e"/>
      <stop offset="1" stop-color="#1a467f"/>
    </linearGradient>
  </defs>
  <g class="st1">
    <g id="Livello_1">
      <path class="st0" d="M2820.4,1312.6c-3.5,0-5,1.6-8.5,2.3s-7.9-.3-8.8-3.7c-4.9-1.9-11.6.7-13.4,5.7.7.3,1.5.8,2.3,1-1,0-2.5-.3-3.6,0-2,.3-4.1,2-3.8,4.1.3,2.8,3.9,3.7,6.7,3.9,18.3,1.3,10.7,2.4,29,.8"/>
      <polygon class="st9" points="2633.2 1246.5 2820.4 1246.8 2820.4 1387.2 2633 1386.6 2633.2 1246.5"/>
      <circle class="st2" cx="2904.3" cy="1428.3" r="41.1"/>
      <path class="st0" d="M2761.9,1316c.4,1.6,2.5,2,4.1,1.7s3.1-1.1,4.7-1.1,3.4,1.6,2.7,3.1c1.7-2.4,5.9-2.2,7.4.3,1.6-.5,3.4-.5,5.1.2.5.2,1,.5,1,1s-.9,1-1.5,1c-9.6,1-19.3,1.2-28.9.5-1.3,0-2.9-.5-3.1-1.8,0-1,.8-1.8,1.8-1.9h1.6c-.3,0-.7-.3-1-.4.8-2.3,3.9-3.5,6.2-2.6h0Z"/>
      <path class="st2" d="M2738.5,1309.6c-3.7,4.4-7,5.4-9.4,7.3s-5.1,3.5-8.2,10.5-4.8,4.7-9.6,10.4-8.4,13.8-10.3,20.6-9.1,7.7-13.7,9.3-41.2,3.1-54.3,18.9h187.4s-3-10.2-17.6-14.1-40.1-8.4-44.2-8.8-5.7-8.5-5.7-8.5l-14.3-45.6h-.1Z"/>
      <path class="st5" d="M2758,1280.3s.3.9.5.9"/>
      <circle class="st3" cx="2736.8" cy="1297.2" r="1.5"/>
      <path class="st4" d="M2743.3,1297.8c0,1,.5,3.3.7,4.2.2.9,1,3,1.5,3.9s2,2.5,2.9,3.2c0,0-.9.2-1.8,1-.9.8-13.4,10.7-13.8,11.7s1.1-4,1.1-4c0,0,2.4-3.5,3.3-4.5.5-.6,1-1.1,1.1-1.2h0c.2-.3.3-1.1.4-1.7,0-.7-.4-4.4-.4-4.3,0,0,2.2-2.7,2.9-4.7.6-1.6.9-2.9.8-4.8,0,0,1-1.2,1-2.4l.4,3.7h-.1Z"/>
      <path class="st2" d="M2728.7,1299.4s-3.2-.4-3.8-4.3c-.6-4,.5-6.1,1.7-7.8,1.2-1.7,4.3-5.3,8.8-5.7,4.3-.4,5.4.3,7.6,2.1.2.2.9,1,1.1,1.2.5.6.9,1.4,1.1,3l9.6,13.1s7.4,7.8,6,13.3c0,0-2.1,6.8-2.2,7.3-.2.5-1.3,4.8.3,7.8,0,0,2.7,4.8,2.2,6.3,0,.4,0,.4-.9,1.1s-2.6,3-1.7,4.8c.9,1.8,1.7,1.4,1.8,3.2,0,1.8.2,3.6-1.1,6-1.4,2.4-4.8,5.5-5.1,6.3s-2.9,2.9-2.6,4.7c0,0-1-6-1.6-9.4s-.4-2-.7-3c-1-3-3.7-8.9-3.6-10.8s2.3-10.4,2.7-12.1c1.2-5.5,8.9-5.2,6.8-11.4-1-2.9-2.7-6.9-6.8-6.3-2.5.4,0,0,0,0,0,0-2.9-1.3-4.2-5.9-1-3.3-1.4-7.6-1.3-9.4,0-.4,0-1.1-.6-1.7-.5-.6-1.5-1.2-2.3,1.3,0,.3-.4.5-.7.5-1.2,0-1.6-.6-4.9-.2-1.9.2-4.3-2.3-4.3-2.3,0,0-2-1.7-2.5,1-.6,3,.3,5.3,1,6.1s.3.9.3.9h0v.3Z"/>
      <path class="st8" d="M2726.7,1332.8s-2.5-7.2-.5-10.2,5.8-6.2,7.1-7.1,4.1-2.7,4.1-2.7c0,0-3.9,4.9-4.5,8.3-.5,3.4,0,0,0,0,0,0,4.2-3.8,5-4.4s5.7-4.5,6.2-4.9,2.8-3.5,6-3.2,5.2,6.4,5.2,6.4c0,0,1.8,5.5,1.3,9.3s-.8,8.1-3.3,11.1,0,0,0,0c0,0-.5-1.2-2.2-2.3-1.6-1.2-3.4-1.2-3.9-1.1s-1.6.2-2.1,1.1,0,0,0,0l.5,5.5s-3.3-1.5-4.5-2c-1.2-.4-3.9-1.4-5.2-1.8s-5.7-1.6-7-1.8c-1.3-.2-2.2,0-2.2,0h0Z"/>
      <path class="st2" d="M2743.6,1342s2.2-14.8,2.6-16.4,2.1-6.1,2.1-6.1c0,0-1.3,4.7-1.6,6.1s-1.5,7.5-1.5,7.5l-1.3,8.6-.3.4h0Z"/>
      <path class="st3" d="M2738.2,1306c.3-.4.8-1,.9-1.2s.3-.6.6-.9.5-1.1.5-1.2.6-1.2.8-1.7.2-.6.5-1.3.3-2.8.4-3.2c0,0,.3,1.8,0,2.8-.2.8-.4,1.7-.6,2.3-.2.6-.6,1.5-1,2.2-.3.6-.6,1-1,1.6-.2.3-.8.8-.9,1l-.2.2v-.6h0Z"/>
      <path class="st4" d="M2741.9,1296.5s.4,1.3-.6,4.4c-.4,1.4-1.6,3.5-2.9,4.8-1.4,1.3-2.2,1.6-3.6.9s-3.8-3-3.8-3c0,0-2.2-1.9-2.3-3.4,0,0-.3-1.5-.9-1.6-.7,0-1.1-4.1-1-5.6s1-3.1,3.1-1.9,2.6,2.4,6.6,2.1c0,0,1.5,0,2.2.2s1-.9,1.1-1.1c.2-.3,1.1-2,2.1-.7.5.7.8,1.6.8,2.8s-.5,1.5-1.1,2h.3Z"/>
      <path class="st3" d="M2733,1304.1h-.2s-.3-.3,0-.5c.2-.3.5-.4.7-.5s1.5-.7,1.7-.8,1.2-.7,1.3-.7c0,0-.6.6-.7.7-.2.2-.4.3-.6.5-.2,0-.8.7-1,.8-.2,0-.6.5-1,.6h-.1Z"/>
      <path class="st6" d="M2733,1304.1s.2.4.7.5,1.2-.4,1.4-.6c.4-.4.8-.8,1.3-2.4,0,0-.6.6-.8.7s-1.9,1.5-2.6,1.8h0Z"/>
      <path class="st3" d="M2736.3,1301.6c0,.2-.2.8-.4,1.2,0,.2-.3.5-.4.7s-.3.4-.5.6-.7.4-1.1.5h-.4v.4c0,.2.2.3.4.4s.6,0,.8,0c.2,0,.6-.3.8-.6.2-.2.4-.6.5-.8,0-.2.2-.5.2-.6,0-.3,0-.7.2-1v-.6"/>
      <path class="st2" d="M2730.8,1296.1c0,0-.2-.2-.2-.3,0-.3.2-.7.4-.9.2,0,.5-.6,1.5-.7s2.1,0,2.1,0c0,0-3,.5-3.8,1.8h0Z"/>
      <path class="st2" d="M2727.4,1298.1s.8-.8,1.4-.2l-.8.9h-.3c0,0-.3-.7-.3-.7h0Z"/>
      <path class="st5" d="M2732.6,1297.9v.6s2.2-1,2.4-2.7c0,0-1.4,1.6-2.3,2,0,0,0,0,0,0h0Z"/>
      <path class="st5" d="M2729.7,1298.6s.4.7.3,1.1"/>
      <path class="st5" d="M2728.3,1300.4s.4.2.7.2c0,0,.8-.6.9-.7,0,0-1.2.5-1.6.5h0Z"/>
      <path class="st3" d="M2731.1,1300.6s-.3.6-.3,1.1v.2c0,0,.2.3.5.3h1.1s-.7.2-1.1.2c0,0-.8,0-.7-.6,0,0,0-.7.5-1.1h0Z"/>
      <path class="st2" d="M2745.3,1332.3s.9-.7,1.6-.8,1.2,0,1.9,0,1.1.3,1.8.7,1.5,1.1,1.9,1.4c.4.4,1.1,1.3,1.1,1.5s-.3.5-.3.5c0,0,0-.7-.7-1.2s-1.1-1-1.8-1.5-1-.6-1.8-.8-.9-.2-1.6-.2-1.2.2-1.6.5c-.3.2-.6.6-.6.6l.2-.7h-.1Z"/>
      <path class="st2" d="M2820.2,1456"/>
      <path class="st0" d="M2660.6,1282.2c.4,1.6,2.5,2,4.1,1.7s3.1-1.1,4.7-1.1,3.4,1.6,2.7,3.1c1.7-2.4,5.9-2.2,7.4.3,1.6-.5,3.4-.5,5.1.2.5.2,1,.5,1,1s-.9,1-1.5,1c-9.6,1-19.3,1.2-28.9.5-1.3,0-2.9-.5-3.1-1.8,0-1,.8-1.8,1.8-1.9h1.6c-.3,0-.7-.3-1-.4.8-2.3,3.9-3.5,6.2-2.6h0Z"/>
      <path class="st8" d="M2748.9,1347.8c3.7,19.1,6,23.6-17.8,17s-16.1-7.2-16.1-16.1,7.2-16.1,16.1-16.1,15.6,3.5,17.8,15.2Z"/>
      <path class="st4" d="M2724,1332.2c0,0,.3-.2.4-.3.2,0,.4-.3.6-.5.7-.3,1.6-.2,2.3,0,.7,0,1.4.3,2,.7.2,0,.3.3.6.3s1.2,0,1.3.2c0,.3-.5.8-.6.9-.2.2-.5.3-.8.2-.2,0-.4-.2-.6-.2s-.4,0-.6-.2c-.3,0-.2,0,0,.2,1.3.8,2.4,2,3.2,3.2,0,0,0,.2,0,.3s0,.2-.3.2h-.3c-.7-.2-1.2-.6-1.8-1-.2,0-.6-.4-.5,0,0,.3.4.4.6.6.4.4.8.7,1.2,1.1.3.2.8.9.7,1.3,0,.3-.8.2-1,0,0,0,0,0-.2,0s-.2,0-.2,0v.5c0,.5-.8.3-1,.2-.7-.3-1.4-.7-2.1-1.2,0,0-1.1-1-1.2-.9,0,0,.3.7.3.8.2.3,1.1,1.2.8,1.5h-.3c-.8-.2-1.2-.6-1.8-1.2-.5-.6-1-1.3-1.4-2-.2-.3-.3-.6-.5-.9-.2-.4-.2-.8-.4-1.2-.4-.9.3-1.8.9-2.5,0-.2.2-.3.4-.4h0l.2.3Z"/>
      <path class="st3" d="M2727.7,1336.6c0,0,.5.5.6.2.2-.2-.2-.5-.4-.6s-.4.2-.2.3h0Z"/>
      <path class="st3" d="M2726.7,1337.5c0,0,.5.5.6.2.2-.2-.2-.5-.4-.6s-.4.2-.2.3h0Z"/>
      <path class="st4" d="M2750.3,1344.1s-3.3,5.8-6.1,8.7c-2,2-10.6,7.6-11.2,7.9,0,0-2.5,4.4-4.4,5s-4.2-.4-4.2-.4c-.8-1-1.5-1.5-1.6-2.3s.7-2.3,1-3.7,4.8-1.1,6.7-2.2c0,0,7.1-5.9,8.7-7.8,1.1-1.4,3.6-5.6,3.6-5.6,0,0,1.1-1.7,1.5-4.7l1-6.1s-.3-.2,1.5-1.2c2.7-1.5,6.7,3.6,6.7,3.6,0,0-1.4,4.4-2.3,7"/>
      <path class="st4" d="M2742.5,1360"/>
      <path class="st0" d="M2667.7,1335c.4,1.6,2.5,2,4.1,1.7s3.1-1.1,4.7-1.1,3.4,1.6,2.7,3.1c1.7-2.4,5.9-2.2,7.4.3,1.6-.5,3.4-.5,5.1.2.5.2,1,.5,1,1s-.9,1-1.5,1c-9.6,1-19.3,1.2-28.9.5-1.3,0-2.9-.5-3.1-1.8,0-1,.8-1.8,1.8-1.9h1.6c-.3,0-.7-.3-1-.4.8-2.3,3.9-3.5,6.2-2.6h0Z"/>
      <rect class="st2" x="2633" y="1386.6" width="187.4" height="13.8"/>
      <polygon class="st7" points="0 95.1 1080.8 95.1 1080.8 1916.9 .4 1916.9 0 95.1"/>
      <path class="st0" d="M804.1,105.8c2.7,9.5,15.2,12.3,24.8,10.3s18.8-7,28.7-6.7,20.5,9.7,16.7,18.8c10.6-14.4,36.1-13.3,45.3,2.1,10-3.3,21-3,30.8,1,2.8,1.1,5.9,3.1,5.9,6.2s-5.2,5.8-9.3,6.2c-58.5,6.1-117.5,7.2-176.3,3.1-7.9-.5-17.9-3.2-18.7-11-.6-5.8,5-10.8,10.8-11.6,3.2-.4,7.1.3,10,.4-2.1-.6-4.2-1.9-6.4-2.7,4.9-14.1,23.8-21.2,37.6-16h0Z"/>
      <path class="st0" d="M1080.8,287.1c-11.2-.3-16,5.1-27,7.3s-25-1-28.1-11.7c-15.5-5.9-36.9,2.1-42.5,18.1,2.3.9,4.8,2.5,7.2,3.1-3.3,0-7.8-.9-11.3-.4-6.5.9-12.9,6.5-12.2,13.1.9,8.9,12.3,11.9,21.2,12.5,58.2,4,34.5,7.5,92.7,2.7"/>
      <path class="st0" d="M789.2,331.6c2.7,9.5,15.2,12.3,24.8,10.3s18.8-7,28.7-6.7,20.5,9.7,16.7,18.8c10.6-14.4,36.1-13.3,45.3,2.1,10-3.3,21-3,30.8,1,2.8,1.1,5.9,3.1,5.9,6.2s-5.2,5.8-9.3,6.2c-58.5,6.1-117.5,7.2-176.3,3.1-7.9-.5-17.9-3.2-18.7-11-.6-5.8,5-10.8,10.8-11.6,3.2-.4,7.1.3,10,.4-2.1-.6-4.2-1.9-6.4-2.7,4.9-14.1,23.8-21.2,37.6-16h0Z"/>
      <path class="st2" d="M788.9,1920c17.2-41.9,12.7-1280.4,24.2-1325.9.4-1.5.8-3,1.2-4.6,7.2-27.7,19.9-51.7,25.8-80.4,6.8-33.3,7.4-69.7-2.7-101.5-10.2-32.4-30.7-58-39.6-90.9-3.9-14.2-6-30.3-14.4-40.4-6.9-8.3-15.6-9.5-24.5-10.5-6.6-.7-11.8-3.8-18-5.7-13.9-4.3-28.3,9.4-32,27-2.3,10.8-.9,22.5-3,33.4-10.5,54.5-65.6,23.2-86.8,1.2-11-10.5-15.6-23.9-19.8-37.6-11.1-35.5-25.7-64.8-60.9-65.8-25.9-1-79.6-5.7-89.5-63-6.7-38.9,23.3-60.2,23.3-60.2H0v1824.9h788.9Z"/>
      <g>
        <path class="st2" d="M769.2,288.1c0,1.5,1.9,3.7,2.7,4.8,1.2,1.6,2.4,3.3,3.8,4.7,2.8,2.9,6,5.5,9.5,7.4,3.8,2.1,7.9,3.4,12.1,4,3.6.5,7.4.5,11.1-.2,5.3-1,7.4-5.9,11.2-.3,2.9,4.1,3.7,9.7,4.5,14.6,4,24.2,5.7,48-12.9,66.4-3.3,3.3-6.7,4.8-9.1,8.8-3,5-5.3,10-6.7,15.7-1.5,6.1-2.6,12.5-6,17.8-4.9,7.7-19.6,10.1-15,22.6,1.4,3.8,5.1,7,9.2,7-5.8-3.4,2.9-10.1,6.2-11.5s6.9-2.1,10-4c7.7-4.7,9.6-15.4,12.7-23.2,4-10.1,5.9-19.2,14.1-27.3,8.9-8.7,25.9-18.4,36.3-7.3,4.6,4.8,6.8,11.7,8.4,18.4,1.5,6.5,3,13.6,3.1,20.5,0,6.3-1.9,11.7-2.2,18.1,0,1.4.4,3.3,1.6,3.3s1.2-.5,1.5-.9c9.4-10,13.7-24.4,15.4-38.7.6-5.6.9-11.2,0-16.7-.9-5.5-2.9-10.9-6.6-15-1.2-1.4-2.8-2.6-3.5-4.5-.6-1.6,0-2.6,0-4.3.4-3.8-2.3-7.8-4-11-4.1-7.4-9.2-14.5-11.9-22.8-4.5-13.9-1.5-29.4-4.4-43.8-4.3-21.6-22.5-38.3-42.5-41.6-20-3.3-40.8,6.1-54.6,22.3-4.6,5.4-8.5,11.6-10.4,18.7-1.4,5.3-1.6,11.2,0,16.5.4,1.3.9,2.6,1.5,3.9.5,1,.6,2.2,1.2,3.2,1.5,2.6,5.7,4.2,8.4,2.6,2.9-1.6,6.3-3.3,8.8-5.6.9-.9,1.9-2.2,1.9-3.5s-1.2-2.7-1.8-4.1c-.5-1.5-.9-2.9-1.4-4.4-1.2-3.6-1.9-7.2-2.6-10.9h.4,0Z"/>
        <path class="st2" d="M811.2,263.7c-14.3,1.2-29.3,3.7-41.8,11.1-5.3,3.2-10.2,7.1-14.1,12.1-4.3,5.5-6.4,11.7-8.1,18.3-3.6,13.2-9.8,25.6-24,29.6-6.5,1.9-13.4,2-20.1,2.2-7.6.2-15.3.3-22.8-.5-7.4-.9-14.6-2.9-21.1-6.4-6.2-3.3-11.9-7.5-18-11.1-11.6-7-24.7-11.2-38.2-12.5-13.5-1.4-27.3.2-40.1,4.9-13.6,4.9-25.6,12.9-37.3,21.1-13.9,9.7-27.9,19.1-42.6,27.5-7.3,4.1-14.7,8.1-22.3,11.7-7.8,3.8-16,7-23.6,11.2-2.2,1.2-.7,4.8,1.7,4.1,7.3-2.1,14.2-5.5,21.1-8.8,6.7-3.2,13.2-6.5,19.8-10.1,13.2-7.2,26.1-15.1,38.5-23.7,11.9-8.2,23.5-17,36.4-23.4,12.5-6.3,26.3-9.6,40.3-9.4,13.7.2,27.4,3.5,39.5,10,12.5,6.7,23.2,16,37.5,19.2,7.1,1.5,14.6,1.9,21.8,1.9s14.3,0,21.4-.8c6.4-.7,12.9-2.2,18.6-5.6,5.5-3.3,9.8-8.3,12.9-13.9,3.7-6.7,5.1-14,7.4-21.3,2.2-7,6.4-12.9,12.2-17.6,13-10.6,29.9-12.4,45.7-15.6,2.3-.5,1.8-4.3-.5-4.1h0v-.2h0Z"/>
        <path class="st4" d="M842.7,327.3c.4,4.6,2.1,14.7,3.1,18.9.9,3.9,4.5,13.6,6.7,17.5,2.2,4,8.9,11.3,12.9,14.1,0,0-3.9.8-8.1,4.6-4.1,3.7-59.7,47.8-61.7,52.2-2,4.4,4.7-17.7,4.7-17.7,0,0,10.6-15.8,14.6-20.2,2.3-2.6,4.3-4.8,4.7-5.3,0,0,.2-.2.2-.3.9-1.5,1.4-4.8,1.9-7.6.5-3.1-1.7-19.6-1.6-19.4,0,0,9.7-12,13.1-21.1,2.7-7.2,4.1-12.9,3.4-21.5,0,0,4.6-5.3,4.3-10.8l1.9,16.6h0Z"/>
        <path class="st2" d="M777.4,334.4s-14.3-1.8-16.8-19.4c-2.6-17.7,2.2-27.3,7.6-34.7,5.5-7.4,19.1-23.6,39.2-25.5,19.4-1.9,23.9,1.2,34.2,9.5,1,.9,4,4.3,4.7,5.3,2.1,2.7,4,6.3,4.9,13.2l43.1,58.6s32.9,35,27,59.3c0,0-9.3,30.4-10,32.5-.7,2.1-5.7,21.5,1.5,35,0,0,12,21.3,10,28.1-.5,1.8-.4,1.6-4,5.1s-11.7,13.6-7.7,21.5c4,7.9,7.4,6.4,7.9,14.5.4,8.1,1.1,16.2-5,27-6.2,10.8-21.4,24.8-22.6,28.3-1.2,3.5-8,12.8-6.6,21.2,0,0-7-36.1-12.5-49.2-2.6-6.2-19.5-43.8-19-54.8.5-10.9,10.4-46.4,12.1-54,5.3-24.6,39.8-23.3,30.3-50.8-4.5-13.1-12.2-30.8-30.3-28-11.1,1.8,0,0,0,0,0,0-13-6-19-26.3-4.3-14.7-6.4-33.8-5.9-41.9,0-1.9-.4-4.8-2.6-7.5-2.1-2.6-6.9-5.3-10.5,5.7-.5,1.4-1.9,2.4-3.3,2.2-5.6-.6-7.4-2.8-21.7-.9-8.3,1.1-19.4-10.1-19.4-10.1,0,0-9.1-7.4-11.4,4.6-2.6,13.6,1.4,23.6,4.3,27.3s1.5,4,1.5,4h0v-.2h0Z"/>
        <path class="st8" d="M768.6,483.9s-11.2-32.4-2.2-45.6,25.7-27.9,31.9-31.8c6.2-3.9,18.3-11.9,18.3-11.9,0,0-17.7,21.8-20,37-2.3,15.2,0,0,0,0,0,0,19-16.8,22.5-19.5s25.5-20.1,27.7-22,12.7-15.5,26.8-14.3c14.1,1.2,23.2,28.7,23.2,28.7,0,0,8.1,24.5,5.8,41.5-2.2,17-3.8,36.3-14.6,49.4-10.8,13.1,0,0,0,0,0,0-2.4-5.3-9.8-10.5-7.4-5.3-15-5.3-17.5-5.1s-7.1.9-9.5,4.8c-2.2,4,0,0,0,0l2.1,24.4s-14.8-6.9-20.1-8.8c-5.3-1.9-17.6-6.2-23.5-8s-25.4-7-31.3-8.1c-5.9-1.1-9.7-.5-9.7-.5h0Z"/>
        <path class="st8" d="M739.7,640.9c.5-5.2-4-25.3-7-26.9-11-31.6-14.3-36.8-16-47.7-1-9.8-2.9-15.9,2.3-35.8,1.8-6.8,5.7-12.7,9.6-18.5,5.7-8.5,12.3-13.6,23.7-22.1,15.9-11.9,14.1-12.2,14.1-12.2l32.3,7.4,49.8,10.1s5.9,26,7.4,30.1c1.6,4.2,15.1,31.7,20.6,53.5,5.4,21.8,15.4,74.2,15.2,82.4h-155.4l3.3-20.4h0Z"/>
        <path class="st2" d="M844,524.9s9.8-66.3,11.7-73.4c1.9-7.1,9.5-27.4,9.5-27.4,0,0-5.9,21.1-7.1,27.2-1.2,6.1-6.9,33.5-6.9,33.5l-5.8,38.4-1.3,1.7h0Z"/>
        <path class="st3" d="M819.8,363.8c1.5-1.9,3.6-4.3,4.2-5.2s1.5-2.6,2.6-4,2.3-4.7,2.4-5.2,2.6-5.6,3.4-7.7,1.1-2.6,2.3-5.9,1.2-12.3,1.7-14.4c0,0,1.2,8.2.4,12.4-.7,3.6-1.6,7.6-2.7,10.4-1,2.6-2.9,6.7-4.4,9.8-1.3,2.7-2.5,4.6-4.5,7.2-1,1.4-3.5,3.7-4,4.3-.2.2-1.1,1.1-1.1,1.1l-.4-2.7h0Z"/>
        <path class="st4" d="M836.5,321.4s1.9,6-2.5,19.8c-1.9,6-7,15.8-13.1,21.5-6.1,5.7-9.8,7.4-15.9,4-6.1-3.4-16.8-13.2-16.8-13.2,0,0-9.9-8.4-10.1-15.4,0,0-1.5-6.7-4-7-3.2-.4-5.1-18.1-4.3-25.1.9-7,4.6-13.7,13.9-8.4s11.8,10.5,29.5,9.5c0,0,6.7-.6,9.9.9s4.6-3.9,5.1-4.7c1.1-1.5,5.1-9.1,9.5-3.2,2.4,3.2,3.4,7.4,3.4,12.7s-2.1,6.5-4.7,8.8h0Z"/>
        <path class="st3" d="M796.6,355.5c-.2,0-.5,0-.7-.2-.4-.3-1.2-1.5-.5-2.4.9-1.3,2-1.8,3-2.2s6.8-3.1,7.6-3.5,5.4-2.9,5.7-3c0,0-2.6,2.5-3.3,3.2-.9.7-1.9,1.5-2.8,2.2-.9.6-3.6,2.9-4.6,3.5-.7.4-2.8,2.2-4.3,2.6h0Z"/>
        <path class="st6" d="M796.6,355.5s.7,1.9,3.3,2,5.5-1.9,6.2-2.6c1.9-1.6,3.6-3.8,5.7-10.8,0,0-2.6,2.5-3.6,3.3s-8.6,6.9-11.5,8h0Z"/>
        <path class="st3" d="M811.7,344.2c-.2.7-1.1,3.5-1.9,5.4-.4.9-1.2,2.4-1.9,3.3s-1.4,1.9-2.2,2.6-2.9,1.8-5.1,2.1c-1,.2-1.8-.2-1.8-.2,0,0,0,1,.2,1.6s.7,1.3,1.7,1.6,2.6,0,3.4-.4c1.1-.5,2.6-1.5,3.7-2.7,1-1.1,1.7-2.6,2-3.4.2-.7.9-2.1,1-2.8.3-1.4.5-3.3.7-4.6.2-1.2.2-2.6.2-2.6"/>
        <circle class="st3" cx="813.8" cy="324.5" r="6.5"/>
        <path class="st2" d="M786.8,319.7c-.5-.3-.8-.9-.8-1.5,0-1.5,1.1-3.3,1.9-3.9.9-.6,2.4-2.5,6.6-3s9.4.3,9.4.3c0,0-13.4,2-16.9,8.1l-.2-.2h0v.2Z"/>
        <path class="st2" d="M771.7,328.5s3.6-3.8,6.2-.7l-3.4,3.9-1.5-.6-1.3-2.5h0Z"/>
        <path class="st5" d="M795.1,327.8v2.7s9.7-4.6,10.9-12c0,0-6.2,7.1-10.5,8.8-.2,0-.5.3-.5.6h0Z"/>
        <path class="st5" d="M793.3,324.4s1.2,3.1,1.8,3.2"/>
        <path class="st5" d="M782,330.7s1.8,3,1.5,5"/>
        <path class="st5" d="M775.7,338.7s1.7.9,3.2.7c0,0,3.5-2.5,4.1-3.1,0,0-5.2,2-7.3,2.4h0Z"/>
        <path class="st3" d="M788.2,339.7s-1.2,2.6-1.4,5c0,.3,0,.5.2.8.2.6.9,1.4,2.3,1.5,1.9,0,4.9-.2,4.9-.2,0,0-3.3.9-4.7.9,0,0-3.5.4-3.3-2.9,0,0,.3-3.1,2.1-5h0Z"/>
        <path class="st4" d="M874.1,534.4s-14.7,26.1-27.3,39.1c-8.8,9-47.4,34-50,35.2,0,0-11.4,19.8-19.6,22.5s-18.8-1.7-18.8-1.7c-3.5-4.3-6.7-6.7-7.3-10.1-.5-3.4,2.9-10.2,4.5-16.4s21.5-4.8,29.9-9.8c0,0,31.8-26.3,38.9-35,5-6,15.9-25.3,15.9-25.3,0,0,4.9-7.6,6.6-21.1l4.3-27.2s-1.3-1.1,6.6-5.3c11.9-6.5,30.1,16.3,30.1,16.3,0,0-6.2,19.6-10.1,31.1"/>
        <path class="st2" d="M851.8,481.4s3.9-3.3,7-3.6,5.5-.4,8.7,0,4.9,1.5,8.1,3.1,6.9,4.8,8.4,6.3c1.8,1.7,4.8,5.9,4.9,6.8s-1.5,2.3-1.5,2.3c0,0-.4-3.2-3-5.5s-5-4.5-8-6.5-4.3-2.6-8-3.6-4.2-1-7.4-.9c-2.7,0-5.4,1-7.1,2.2-1.3.9-2.8,2.6-2.8,2.6l.7-3.3h0v.2h0Z"/>
        <path class="st4" d="M756.8,481.1c.6-.5,1.2-1.1,1.9-1.5.9-.6,1.9-1.5,2.9-2,2.9-1.3,7.3-.7,10.4,0,3,.6,6.3,1.5,9,3,1,.5,1.5,1.2,2.7,1.4,1.2.2,5.3-.3,6,.9.6,1.2-2,3.6-2.9,4.2-1,.7-2.4,1.2-3.6.9-.9,0-1.9-.7-2.9-.9-.9-.2-1.8-.5-2.6-.8-1.5-.3-1,.3,0,.9,6,3.5,10.5,9,14.5,14.5.3.4.6.9.5,1.4,0,.5-.6.9-1.2,1-.5,0-1.1,0-1.5-.2-3-.9-5.5-2.8-8.1-4.6-.8-.5-2.7-1.9-2.1,0,.4,1.2,1.9,1.9,2.7,2.8,1.7,1.8,3.8,3.2,5.6,4.9,1.2,1.1,3.8,4,3.2,5.8-.5,1.5-3.5,1-4.6.5-.3-.2-.6-.4-1-.5s-.8,0-1,.3c-.2.2-.2.6,0,.9.2.5.4.9.4,1.5.2,2-3.5,1.4-4.6.9-3.3-1.5-6.4-3-9.2-5.3-.5-.4-5-4.6-5.6-3.9-.5.6,1.2,3.1,1.5,3.6.7,1.2,5,5.3,3.4,6.8-.3.3-.9.2-1.2.2-3.7-.7-5.6-2.7-7.9-5.5-2.3-2.7-4.4-5.7-6.3-8.8-.8-1.3-1.5-2.6-2.3-3.9-.9-1.7-.9-3.6-1.7-5.4-1.7-4,1.5-8.1,3.9-11.2.5-.7,1.1-1.2,1.7-1.9h.2Z"/>
        <path class="st3" d="M773.1,500.6c.5.6,2,2.2,2.9,1.1.9-1.1-1-2.2-1.7-2.6-.9-.5-1.8.7-1.1,1.5h0Z"/>
        <path class="st3" d="M768.7,505c.5.6,2,2.2,2.9,1.1.9-1.1-1-2.2-1.7-2.6-.9-.5-1.8.7-1.1,1.5h0Z"/>
      </g>
      <path class="st2" d="M751.7,468.9c-44.7,30.4-80.9,152.1,65.6,170.3,261.2,20.9,263.5,54.8,263.5,54.8l-373.8,56.3-68.1-156.1,36.8-147.5,75.9,22.2h.1Z"/>
      <path class="st2" d="M1080.4,694"/>
      <polygon class="st2" points="769.1 1920 800.5 709.4 1080.8 694 1080.8 1920 769.1 1920"/>
    </g>
  </g>
</svg>