<?xml version="1.0" encoding="UTF-8"?>
<svg id="Livello_2" data-name="Livello 2" xmlns="http://www.w3.org/2000/svg" viewBox="0 0 1088.68 2123.84">
  <defs>
    <style>
      .cls-1 {
        fill: #c1c1c1;
      }

      .cls-2 {
        fill: #fff;
      }

      .cls-3 {
        fill: #fcd5d0;
      }

      .cls-4 {
        fill: #ff5f7e;
      }
    </style>
  </defs>
  <g id="Livello_3" data-name="Livello 3">
    <rect class="cls-3" width="1088.68" height="2123.84"/>
    <rect class="cls-4" x="72.46" y="94.37" width="943.42" height="2029.47"/>
    <rect class="cls-2" x="317.81" y="267.03" width="452.27" height="127.74"/>
    <path class="cls-1" d="M168.48,1156.05c20.85,0,37.75-16.9,37.75-37.75s-16.9-37.75-37.75-37.75-37.75,16.9-37.75,37.75,16.9,37.75,37.75,37.75Z"/>
    <path class="cls-2" d="M297.7,1133.8c4.28,0,7.75-6.94,7.75-15.49h0c0-8.56-3.47-15.5-7.75-15.5h-129.46c-4.28,0-7.75,6.94-7.75,15.5h0c0,8.56,3.47,15.49,7.75,15.49h129.46Z"/>
  </g>
</svg>