<?xml version="1.0" encoding="UTF-8"?>
<svg viewBox="0 0 60 60" xmlns="http://www.w3.org/2000/svg" role="img" aria-label="SO">
  <title>SaluteOra Icon</title>
  
  <!-- Lettere "SO" stilizzate -->
  <g fill="#0d2b4a">
    <!-- S stilizzata -->
    <path d="M15 25c0-2.2 1.8-4 4-4h6c2.2 0 4 1.8 4 4v1c0 2.2-1.8 4-4 4h-6c-2.2 0-4 1.8-4 4v1c0 2.2 1.8 4 4 4h6c2.2 0 4-1.8 4-4" fill="none" stroke="#0d2b4a" stroke-width="2" stroke-linecap="round"/>
    
    <!-- O stilizzata -->
    <path d="M30 30c0-5.5 4.5-10 10-10s10 4.5 10 10-4.5 10-10 10-10-4.5-10-10zm4 0c0 3.3 2.7 6 6 6s6-2.7 6-6-2.7-6-6-6-6 2.7-6 6z"/>
  </g>
</svg>
